<?xml version="1.0" encoding="utf-8" standalone="no"?>
<!DOCTYPE svg PUBLIC "-//W3C//DTD SVG 1.1//EN" 
 "http://www.w3.org/Graphics/SVG/1.1/DTD/svg11.dtd">

<svg height="1000" width="1000" viewBox="0 0 400 400"
    preserveAspectRatio="none"
    version="1.1" xmlns="http://www.w3.org/2000/svg">

<polygon points="41,63 45,152 65,150 76,142 86,139 80,129 72,122
                 78,114 79,108 70,93 84,71 92,52 100,43 89,37 78,35
                 64,38 56,43 48,51 45,63"
    style="fill: #ff0000; stroke: #000000; stroke-width: 1"/>
<text x="90" y="100"
    font-family="Helvetica" font-size="30px"
    text-anchor="right" fill="white" stroke="black">New Castle</text>

<polygon points="45,152 52,262 85,261 95,248 107,245 110,240 109,236
                113,234 117,236 123,236 112,226 112,211 106,195 110,182
                106,174 109,165 100,158 99,154 89,146 86,139 76,142 65,150"
    style="fill: #00ff00; stroke: #000000; stroke-width: 1"/>
<text x="120" y="200"
    font-family="Helvetica" font-size="30px"
    text-anchor="right" fill="white" stroke="black">Kent</text>

<polygon points="52,262 57,358 174,359 172,322 167,329 159,325 153,327 141,333
                147,327 145,325 129,328 123,322 133,324 155,318 167,317 165,314
                156,312 155,300 152,295 169,295 172,319 173,295 169,275 165,270
                165,277 158,280 123,241 123,236 117,236 113,234 109,236 110,240
                107,245 95,248 85,261 52,262"
    style="fill: #0000ff; stroke: #000000; stroke-width: 1"/>
<text x="190" y="320"
    font-family="Helvetica" font-size="30px"
    text-anchor="right" fill="white" stroke="black">New Castle</text>

<text x="190" y="350"
    font-family="Helvetica" font-size="20px"
    text-anchor="right" fill="white" stroke="black">aka The Slower Lower</text>

</svg>