<svg id="svgCanvas" xmlns="http://www.w3.org/2000/svg"
			xmlns:xlink="http://www.w3.org/1999/xlink" 	version="1.1" overflow="visible">
		<script xlink:href="../JS/SVGPan.js"/>
	
			<g id="viewport">
			
				<!-- WATER TERRITORIES -->
				<polygon id="ws" class="wildling"
				points="312,0 409,0 409,75 312,75"
				style="fill: #666666; stroke: #000000; stroke-width: 2"/>
			
				<polygon id="The Bay of Ice" class="wsquare"
				points="-50,0 312,0 312,490 -50,490"
				style="fill: #5599ff; stroke: #0000ff; stroke-width: 2"/>
				
				<polygon id="The Shivering Sea" class="wsquare"
				points="409,0 700,0 700,379 409,379"
				style="fill: #5599ff; stroke: #0000ff; stroke-width: 2"/>
				
				<polygon id="The Narrow Sea" class="wsquare"
				points="315,379 700,379 700,695 315,695"
				style="fill: #5599ff; stroke: #0000ff; stroke-width: 2"/>
				
				<polygon id="Shipbreaker Bay" class="wsquare"
				points="480,695 500,780 460,960 510,1000 600,1000
						700,1000 700,695"
				style="fill: #5599ff; stroke: #0000ff; stroke-width: 2"/>
				
				<polygon id="Blackwater Bay" class="wsquare"
				points="415,754 480,695 500,780 500,820 415,820"
				style="fill: #5599ff; stroke: #0000ff; stroke-width: 2"/>
				
				<polygon id="Summer Sea" class="wsquare"
				points="270,1000 700,1000 700,1300 270,1300"
				style="fill: #5599ff; stroke: #0000ff; stroke-width: 2"/>
				
				<polygon id="The Sea of Dorne" class="wsquare"
				points="340,1030 510,1030 530,1055 490,1080
						475,1110 340,1110"
				style="fill: #5599ff; stroke: #0000ff; stroke-width: 2"/>
				
				<polygon id="West Summer Sea" class="wsquare"
				points="-50,850 -50,1300 270,1300 270,850"
				style="fill: #5599ff; stroke: #0000ff; stroke-width: 2"/>
				
				<polygon id="Redwyne Straights" class="wsquare"
				points="25,950 165,950 165,1220 45,1220 25,1200"
				style="fill: #5599ff; stroke: #0000ff; stroke-width: 2"/>
				
				<polygon id="Ironman's Bay" class="wsquare"
				points="0,492 195,492 195,630 0,630"
				style="fill: #5599ff; stroke: #0000ff; stroke-width: 2"/>
				
				<polygon id="Sunset Sea" class="wsquare"
				points="-50,490 55,490 55,512 0,512 0,820 100,820
						100,850 -50,850"
				style="fill: #5599ff; stroke: #0000ff; stroke-width: 2"/>
				
				<polygon id="The Golden Sound" class="wsquare"
				points="0,630 195,630 195,820 0,820"
				style="fill: #5599ff; stroke: #0000ff; stroke-width: 2"/>
				<!-- END WATCER TERRITORIES -->
				
				<!-- LAND TERRITORIES -->
				<polygon id="Castle Black" class="square"
				points="314,72 284,106 372,173 426,144 409,72"
				style="fill: #cccccc; stroke: #000000; stroke-width: 1"/>
				
				<polygon id="Winterfell" class="square"
				points="284,106 372,173 416,207 435,259 441,306 378,303 267,362
						267,389 233,412 207,410 192,182 242,193 252,133"
				style="fill: #cccccc; stroke: #000000; stroke-width: 1"/>
				
				<polygon id="Karhold" class="square"
				points="372,173 426,144 509,144 509,219 479,219 435,259 416,207"
				style="fill: #cccccc; stroke: #000000; stroke-width: 1"/>
				
				<polygon id="White Harbor" class="square"
				points="267,389 267,362 378,303 441,306 459,331 408,335 377,372
						377,426 357,438 339,400 339,390"
				style="fill: #cccccc; stroke: #000000; stroke-width: 1"/>
				
				<polygon id="Widow's Watch" class="square"
				points="459,331 408,335 377,372 377,426 357,438 425,438 432,379
						494,379 494,350"
				style="fill: #cccccc; stroke: #000000; stroke-width: 1"/>
				
				<polygon id="Stoney Shore" class="square"
				points="192,181 207,410 190,421 164,410 118,423 83,368 87,300
						133,173"
				style="fill: #cccccc; stroke: #000000; stroke-width: 1"/>
				
				<polygon id="Moat Cailin" class="square"
				points="207,410 233,412 267,389 339,390 339,400 315,471 284,475
						256,538 233,483"
				style="fill: #cccccc; stroke: #000000; stroke-width: 1"/>
				
				<polygon id="Greywater Watch" class="square"
				points="190,421 207,410 233,483 151,496 148,433"
				style="fill: #cccccc; stroke: #000000; stroke-width: 1"/>
				
				<polygon id="Flint's Finger" class="square"
				points="148,433 151,496 53,515 53,433"
				style="fill: #cccccc; stroke: #000000; stroke-width: 1"/>
				
				<polygon id="Seagard" class="square"
				points="151,496 233,483 256,538 295,600 245,596 193,579
						193,520"
				style="fill: #cccccc; stroke: #000000; stroke-width: 1"/>
				
				<polygon id="The Twins" class="square"
				points="315,471 284,475 256,538 295,600 353,586 353,495
						315,495"
				style="fill: #cccccc; stroke: #000000; stroke-width: 1"/>
				
				<polygon id="The Fingers" class="square"
				points="353,586 353,495 429,471 425,493 485,466 452,496
						481,485 462,507 491,490 476,514 518,493 479,525
						453,529 435,549"
				style="fill: #cccccc; stroke: #000000; stroke-width: 1"/>
				
				<polygon id="The Mountains of the Moon" class="square"
				points="295,600 326,651 382,685 412,679 378,658 364,631
						364,610 491,597 526,574 515,525 435,549 353,568"
				style="fill: #cccccc; stroke: #000000; stroke-width: 1"/>
				
				<polygon id="The Eyrie" class="square"
				points="491,597 364,610 364,631 378,658 412,679 444,679
						478,641 513,641 540,597"
				style="fill: #cccccc; stroke: #000000; stroke-width: 1"/>
				
				<polygon id="Pyke" class="square"
				points="40,539 160,539 160,606 40,606"
				style="fill: #cccccc; stroke: #000000; stroke-width: 1"/>
				
				<polygon id="Riverrun" class="square"
				points="245,596 295,600 326,651 269,658 242,673 182,699
						170,650 193,631 193,579"
				style="fill: #cccccc; stroke: #000000; stroke-width: 1"/>
				
				<polygon id="Lannisport" class="square"
				points="170,650 182,699 165,781 65,781 55,737 90,650"
				style="fill: #cccccc; stroke: #000000; stroke-width: 1"/>
				
				<polygon id="Searoad Marches" class="square"
				points="65,781 165,781 165,877 85,877"
				style="fill: #cccccc; stroke: #000000; stroke-width: 1"/>
				
				<polygon id="Stoney Sept" class="square"
				points="182,699 165,781 165,800 269,787 288,741 269,658
						242,673"
				style="fill: #cccccc; stroke: #000000; stroke-width: 1"/>
				
				<polygon id="Harrenhal" class="square"
				points="269,658 288,741 344,741 354,668 326,651"
				style="fill: #cccccc; stroke: #000000; stroke-width: 1"/>
				
				<polygon id="Crackclaw Point" class="square"
				points="354,668 344,741 344,756 415,754 480,705 492,655
						443,695 382,685"
				style="fill: #cccccc; stroke: #000000; stroke-width: 1"/>
				
				<polygon id="Dragonstone" class="square"
				points="540,705 658,705 658,800 540,800"
				style="fill: #cccccc; stroke: #000000; stroke-width: 1"/>
				
				<polygon id="King's Landing" class="square"
				points="344,756 330,790 330,877 371,900 415,877 415,754"
				style="fill: #cccccc; stroke: #000000; stroke-width: 1"/>
				
				<polygon id="The Blackwater" class="square"
				points="330,877 330,790 344,756 344,741 288,741
						269,787 165,800 165,877"
				style="fill: #cccccc; stroke: #000000; stroke-width: 1"/>
				
				<polygon id="The Reach" class="square"
				points="371,900 330,877 145,877 180,970 310,970"
				style="fill: #cccccc; stroke: #000000; stroke-width: 1"/>
				
				<polygon id="Highgarden" class="square"
				points="180,970 145,877 85,877 85,970 109,990 156,990"
				style="fill: #cccccc; stroke: #000000; stroke-width: 1"/>
				
				<polygon id="Oldtown" class="square"
				points="156,990 109,990 85,1010 85,1103 136,1103"
				style="fill: #cccccc; stroke: #000000; stroke-width: 1"/>
				
				<polygon id="Three Towers" class="square"
				points="136,1103 97,1103 136,1200 180,1200 220,1125 200,1050"
				style="fill: #cccccc; stroke: #000000; stroke-width: 1"/>
				
				<polygon id="Dornish Marches" class="square"
				points="288,970 180,970 156,990 136,1103 200,1050 220,1125
						220,1020 288,1020"
				style="fill: #cccccc; stroke: #000000; stroke-width: 1"/>
				
				<polygon id="Prince's Pass" class="square"
				points="288,1020 220,1020 220,1125 288,1125"
				style="fill: #cccccc; stroke: #000000; stroke-width: 1"/>
				
				<polygon id="Starfall" class="square"
				points="288,1125 220,1125 180,1200 180,1250 288,1250"
				style="fill: #cccccc; stroke: #000000; stroke-width: 1"/>
				
				<polygon id="The Boneway" class="square"
				points="288,970 288,1110 340,1110 340,970"
				style="fill: #cccccc; stroke: #000000; stroke-width: 1"/>
				
				<polygon id="Yronwood" class="square"
				points="345,1110 288,1110 288,1185 420,1185"
				style="fill: #cccccc; stroke: #000000; stroke-width: 1"/>
				
				<polygon id="Salt Shore" class="square"
				points="470,1185 288,1185 288,1250 470,1250"
				style="fill: #cccccc; stroke: #000000; stroke-width: 1"/>
				
				<polygon id="Sunspear" class="square"
				points="345,1110 420,1185 470,1185 470,1250 500,1250
						530,1055 490,1080 475,1110"
				style="fill: #cccccc; stroke: #000000; stroke-width: 1"/>
				
				<polygon id="Kingswood" class="square"
				points=" 415,810 415,877 371,900 310,970 340,970 430,920 500,920
						500,780"
				style="fill: #cccccc; stroke: #000000; stroke-width: 1"/>
				
				<polygon id="Storm's End" class="square"
				points="340,970 430,920 500,920 460,960 525,960 510,1030
						340,1030"
				style="fill: #cccccc; stroke: #000000; stroke-width: 1"/>
				
				<polygon id="The Arbor" class="square"
				points="20,1120 55,1120 85,1200 75,1220 55,1250 20,1200"
				style="fill: #cccccc; stroke: #000000; stroke-width: 1"/>
				<!-- END LAND TERRITORIES -->
				
				<!-- RIVERS -->
				<polygon
				points="190,421 207,410 207,410 233,412 267,389 233,411
						207,411"
				style="fill: #0000ff; stroke: #0000ff; stroke-width:4"/>
				
				<polygon
				points="252,527 256,538 295,600 326,651 382,685 327,651
						257,538 257,527"
				style="fill: #0000ff; stroke: #0000ff; stroke-width:4"/>
				
				<polygon
				points="180,1200 220,1125 220,1100 219,1125"
				style="fill: #0000ff; stroke: #0000ff; stroke-width:4"/>
				<!-- END RIVERS -->
				
			</g>
		
		</svg>